<svg width="600" height="216" viewBox="0 0 600 216" fill="none" xmlns="http://www.w3.org/2000/svg">
<path fill-rule="evenodd" clip-rule="evenodd" d="M292.311 0.653611C283.036 2.68661 274.78 5.65061 273.921 7.25561C273.415 8.20061 273.234 11.0336 273.518 13.5516C274.923 26.0226 262.715 32.8256 252.323 25.3626C249.305 23.1956 247.383 22.4626 245.929 22.9246C242.881 23.8916 228.811 38.3096 228.811 40.4656C228.811 41.4786 230.049 43.7786 231.561 45.5766C233.858 48.3056 234.311 49.7846 234.311 54.5476C234.311 58.8376 233.815 60.8076 232.311 62.4946C229.41 65.7486 224.635 67.4616 218.466 67.4616C215.351 67.4616 212.621 67.9916 212.03 68.7116C210.006 71.1786 206.688 84.2806 206.998 88.5806C207.293 92.6706 207.606 93.0816 212.304 95.5596C215.05 97.0076 218.085 99.4906 219.049 101.078C222.73 107.14 220.126 115.73 213.605 119.034C206.035 122.87 205.188 126.296 208.806 138.444C211.407 147.179 212.767 148.328 220.311 148.167C227.102 148.023 230.958 149.912 233.362 154.561C236.079 159.815 234.654 167.858 230.377 171.407C229.516 172.122 228.811 173.603 228.811 174.699C228.811 177.607 243.562 192.462 246.45 192.462C247.71 192.462 250.87 191.112 253.472 189.462C258.961 185.981 263.017 185.681 267.512 188.422C271.926 191.112 273.811 195.254 273.811 202.257C273.811 206.605 274.27 208.565 275.561 209.725C277.727 211.672 295.066 215.833 297.626 215.021C298.656 214.694 300.581 212.332 301.905 209.771C305.105 203.579 308.589 201.129 314.194 201.129C319.998 201.129 323.207 203.336 326.312 209.463C327.964 212.724 329.643 214.633 331.205 215.025C333.868 215.693 349.083 211.983 352.561 209.817C354.542 208.584 354.811 207.59 354.811 201.516C354.811 195.568 355.165 194.195 357.375 191.568C359.721 188.78 364.92 186.481 368.911 186.468C369.79 186.465 372.49 187.804 374.911 189.444C381.595 193.973 383.171 193.555 391.527 185.035C399.749 176.651 400.345 174.614 396.311 168.677C394.533 166.061 393.811 163.659 393.811 160.365C393.811 152.004 400.181 147.009 409.448 148.104C413.407 148.572 414.611 148.333 415.926 146.82C418.031 144.398 421.811 131.674 421.811 127.01C421.811 123.923 421.319 123.11 418.576 121.665C416.796 120.729 413.646 118.327 411.576 116.33C408.35 113.217 407.812 112.072 407.815 108.33C407.82 102.402 410.648 98.1346 416.499 95.2246C420.857 93.0576 421.341 92.4686 421.631 88.9916C422.036 84.1166 417.38 68.8936 415.23 68.0686C414.36 67.7346 411.187 67.4616 408.18 67.4616C405.172 67.4616 401.392 66.7786 399.778 65.9446C393.288 62.5886 391.836 52.9296 396.733 45.7036C398.429 43.2026 399.413 40.6566 399.12 39.5336C398.488 37.1166 383.508 22.4606 381.676 22.4656C380.925 22.4686 378.286 23.8166 375.811 25.4616C365.207 32.5106 354.233 26.8266 354.574 14.4616C354.829 5.19161 354.947 5.29961 340.427 1.38961C330.871 -1.18339 329.08 -0.557389 325.907 6.46261C321.037 17.2386 307.742 17.1796 302.259 6.35761C299.291 0.502611 297.552 -0.495389 292.311 0.653611ZM332.647 45.7966C353.954 51.9686 370.724 69.1076 376.351 90.4616C378.65 99.1846 379.039 112.329 377.254 120.962C372.377 144.555 352.226 165.089 329.154 169.977C320.071 171.902 305.99 171.843 297.875 169.847C284.023 166.44 268.644 155.456 260.472 143.133C248.818 125.561 246.34 103.927 253.783 84.7226C257.67 74.6936 261.735 68.7366 270.119 60.7826C280.308 51.1166 292.072 45.3736 306.311 43.1156C312.008 42.2116 324.746 43.5086 332.647 45.7966ZM435.811 101.462V143.462H458.311H480.811V136.462V129.462H465.811H450.811V119.462V109.462H465.311H479.811V101.962V94.4616H465.311H450.811V84.4616V74.4616H465.811H480.811V66.9616V59.4616H458.311H435.811V101.462ZM495.811 101.462V143.462H516.311H536.811V136.462V129.462H523.811H510.811V94.4616V59.4616H503.311H495.811V101.462ZM545.811 101.361V143.462H553.311H560.811V127.462V111.462H568.629C578.92 111.462 585.431 109.429 591.089 104.448C601.991 94.8516 602.102 76.1686 591.312 66.6716C584.973 61.0916 581.508 60.2546 562.561 59.7266L545.811 59.2596V101.361ZM33.483 62.2116C33.237 62.6246 30.531 69.0366 27.468 76.4616C24.406 83.8866 16.973 101.792 10.95 116.251L0 142.54L8.116 142.251L16.233 141.962L20.272 131.697L24.311 121.432L39.699 121.697L55.086 121.962L59.05 132.212L63.014 142.462H70.913C75.257 142.462 78.811 142.209 78.811 141.9C78.811 141.59 75.737 134.053 71.98 125.15C68.223 116.246 60.693 98.2746 55.248 85.2116L45.348 61.4616H39.638C36.498 61.4616 33.728 61.7986 33.483 62.2116ZM87.811 101.855V142.462H101.601C123.378 142.462 132.82 138.967 137.721 129.093C142.834 118.793 140.062 106.548 131.376 101.058L126.92 98.2406L129.794 95.8226C133.801 92.4506 136.252 85.6196 135.39 80.2266C134.231 72.9796 130.56 67.9766 124.062 64.7876C118.656 62.1346 117.395 61.9436 103.061 61.6066L87.811 61.2476V101.855ZM144.811 68.4616V75.4616H152.311H159.811V108.962V142.462H167.311H174.811V108.962V75.4616H182.311H189.811V68.4616V61.4616H167.311H144.811V68.4616ZM579.5 76.4136C585.337 79.9726 585.944 89.4886 580.62 93.9696C577.976 96.1936 576.753 96.4616 569.234 96.4616H560.811V85.4616V74.4616L568.561 74.4656C574.472 74.4686 577.068 74.9306 579.5 76.4136ZM115.414 76.5006C119.045 77.8816 120.741 80.2826 120.779 84.1006C120.839 89.9656 115.475 93.3686 106.061 93.4376L102.811 93.4616V84.4616V75.4616H107.746C110.46 75.4616 113.911 75.9296 115.414 76.5006ZM44.718 95.8446C47.005 101.831 48.695 106.912 48.472 107.135C48.248 107.358 44.013 107.41 39.059 107.251L30.053 106.962L34.617 95.1966C37.127 88.7256 39.491 83.7756 39.869 84.1966C40.248 84.6176 42.43 89.8596 44.718 95.8446ZM120.666 108.887C125.563 111.419 127.359 118.807 124.18 123.345C121.811 126.727 116.781 128.462 109.343 128.462H102.811V117.962V107.462H110.361C114.939 107.462 118.995 108.023 120.666 108.887Z" fill="#36399E"/>
<path d="M435.811 143.462V101.462V59.4615H458.311H480.811V66.9615V74.4615H465.811H450.811V84.4615V94.4615H465.311H479.811V101.962V109.462H465.311H450.811V119.462V129.462H465.811H480.811V136.462V143.462H458.311H435.811Z" fill="#F12E35"/>
<path d="M495.811 143.462V101.462V59.4615H503.311H510.811V94.4615V129.462H523.811H536.811V136.462V143.462H516.311H495.811Z" fill="#F12E35"/>
<path fill-rule="evenodd" clip-rule="evenodd" d="M545.811 101.361V143.462H553.311H560.811V127.462V111.462H568.629C578.92 111.462 585.431 109.429 591.089 104.448C601.991 94.8515 602.102 76.1685 591.312 66.6715C584.973 61.0915 581.508 60.2545 562.561 59.7265L545.811 59.2595V101.361ZM580.62 93.9695C585.944 89.4885 585.337 79.9725 579.5 76.4135C577.068 74.9305 574.472 74.4685 568.561 74.4655L560.811 74.4615V85.4615V96.4615H569.234C576.753 96.4615 577.976 96.1935 580.62 93.9695Z" fill="#F12E35"/>
<path d="M281.811 147.462V105.462V63.4617H289.811H297.811V80.4617V97.4617H313.311H328.811V80.4617V63.4617H336.311H343.811V105.462V147.462H336.311H328.811V129.962V112.462H313.311H297.811V129.962V147.462H289.811H281.811Z" fill="#F12E35"/>
</svg>
